<?xml version="1.0" standalone="no"?>
<!DOCTYPE svg PUBLIC "-//W3C//DTD SVG 20010904//EN"
 "http://www.w3.org/TR/2001/REC-SVG-20010904/DTD/svg10.dtd">
<svg version="1.0" xmlns="http://www.w3.org/2000/svg"
 width="500.000000pt" height="500.000000pt" viewBox="0 0 500.000000 500.000000"
 preserveAspectRatio="xMidYMid meet">

<g transform="translate(0.000000,500.000000) scale(0.100000,-0.100000)"
fill="#000000" stroke="none">
<path d="M1557 3400 c-9 -11 -28 -20 -41 -20 -13 0 -29 -7 -36 -15 -7 -8 -21
-15 -31 -15 -13 0 -19 -7 -19 -24 0 -31 -38 -43 -57 -18 -12 15 -13 15 -11 -8
2 -19 -1 -25 -14 -24 -10 1 -16 -2 -13 -6 3 -4 -3 -14 -12 -21 -14 -12 -16
-12 -9 0 18 29 -19 4 -39 -27 -24 -38 -46 -48 -57 -27 -10 17 -54 20 -64 4 -4
-7 0 -9 13 -5 22 7 49 -16 38 -34 -3 -5 -24 -10 -46 -10 -25 0 -38 -4 -34 -10
4 -6 14 -9 22 -8 24 4 27 -19 3 -27 -11 -3 -18 -11 -14 -16 3 -6 1 -15 -4 -22
-5 -7 -10 -31 -9 -53 0 -40 1 -41 31 -39 24 2 32 8 34 26 6 36 21 49 57 49 19
0 36 -6 38 -12 4 -8 6 -7 6 3 1 20 32 34 41 20 3 -6 11 -2 18 9 10 17 10 20
-3 20 -22 0 -18 38 5 45 11 3 24 3 30 0 12 -8 13 -32 1 -37 -5 -1 2 -11 15
-21 l24 -18 -12 27 c-11 23 -10 28 7 40 27 20 32 18 51 -18 11 -20 19 -28 22
-20 2 8 -6 27 -18 44 -17 23 -19 32 -10 44 17 20 36 18 54 -7 11 -17 21 -20
44 -14 25 5 31 3 37 -14 4 -12 12 -18 21 -14 7 3 14 -1 14 -7 0 -9 7 -7 20 5
19 18 20 17 20 -2 0 -22 -61 -83 -108 -107 -16 -8 -76 -33 -133 -54 -57 -22
-127 -51 -155 -65 -96 -49 -180 -70 -250 -64 -35 4 -72 11 -82 16 -15 8 -24 5
-44 -17 -46 -52 -53 -63 -40 -71 9 -5 5 -17 -13 -41 -26 -35 -37 -81 -12 -50
7 9 28 25 48 37 l37 21 17 -64 c15 -56 23 -68 64 -99 56 -40 95 -57 116 -49
21 8 36 68 18 72 -22 6 -15 26 28 91 48 72 161 166 256 213 57 28 80 33 148
36 68 2 86 -1 119 -20 22 -13 48 -39 58 -60 17 -33 18 -44 8 -92 -6 -31 -9
-60 -5 -66 3 -5 -9 -23 -27 -40 -21 -20 -25 -28 -12 -21 11 5 26 17 34 25 7 9
17 16 23 16 6 0 20 9 32 19 69 67 115 114 112 117 -3 3 -14 -8 -71 -66 -11
-11 -28 -20 -38 -20 -25 0 -23 37 3 45 11 4 24 18 30 32 11 30 11 36 0 29 -5
-4 -7 3 -4 14 3 11 9 18 13 15 4 -2 16 2 26 10 18 14 18 15 -6 12 -19 -1 -26
3 -28 19 -2 11 4 26 12 33 12 10 13 16 3 32 -9 15 -9 23 1 39 7 11 8 20 2 20
-5 0 -14 17 -19 38 -9 32 -18 40 -65 62 -31 14 -56 30 -56 37 0 6 5 33 11 60
15 63 -1 121 -45 168 -40 42 -90 48 -119 15z m-177 -150 c0 -5 -2 -10 -4 -10
-3 0 -8 5 -11 10 -3 6 -1 10 4 10 6 0 11 -4 11 -10z m90 -30 c0 -15 -7 -20
-27 -20 l-28 1 24 19 c29 25 31 25 31 0z m-66 -22 c-11 -37 -25 -48 -60 -48
-24 0 -34 5 -34 15 0 15 10 19 42 16 9 -1 23 7 30 18 17 28 31 27 22 -1z m46
-15 c0 -12 -33 -43 -47 -43 -17 0 -17 10 4 32 16 18 43 25 43 11z m-141 -92
c12 -8 10 -12 -12 -22 -22 -10 -30 -10 -40 0 -21 21 23 40 52 22z m476 -400
c-3 -6 -11 -11 -17 -11 -6 0 -6 6 2 15 14 17 26 13 15 -4z"/>
<path d="M1231 3354 c0 -11 3 -14 6 -6 3 7 2 16 -1 19 -3 4 -6 -2 -5 -13z"/>
<path d="M1081 3264 c0 -11 3 -14 6 -6 3 7 2 16 -1 19 -3 4 -6 -2 -5 -13z"/>
<path d="M1147 3260 c-3 -11 -2 -20 3 -20 12 0 21 28 11 35 -5 2 -11 -4 -14
-15z"/>
<path d="M993 3252 c-3 -12 -9 -19 -14 -16 -5 3 -9 -3 -9 -14 0 -35 13 -32 26
5 7 20 11 39 8 42 -3 3 -7 -5 -11 -17z"/>
<path d="M1227 3234 c-3 -3 -3 -13 0 -21 5 -12 7 -12 14 -1 15 23 4 40 -14 22z"/>
<path d="M1080 3205 c-14 -16 -3 -20 19 -6 8 5 9 11 3 15 -5 3 -15 -1 -22 -9z"/>
<path d="M1432 3033 c-24 -14 -41 -27 -39 -29 6 -6 87 38 87 47 0 12 2 12 -48
-18z"/>
<path d="M1893 3046 c4 -11 1 -16 -11 -16 -10 -1 -1 -9 20 -21 43 -22 76 -75
59 -92 -6 -6 -11 -18 -11 -26 0 -8 -10 -26 -22 -40 l-23 -26 28 24 c27 24 27
24 42 5 22 -29 18 -62 -10 -88 -14 -13 -25 -28 -25 -34 0 -5 -17 -24 -37 -42
-31 -26 -32 -28 -6 -11 40 27 51 26 59 -3 7 -30 -14 -77 -41 -91 -25 -13 -87
-75 -75 -75 5 0 25 16 44 35 42 41 54 43 62 10 5 -20 -5 -37 -56 -95 -37 -41
-71 -70 -82 -70 -11 0 -31 -9 -45 -20 -18 -14 -21 -20 -10 -20 9 0 19 5 22 10
7 12 45 14 45 2 0 -11 -101 -108 -127 -121 -12 -6 -31 -11 -42 -11 -11 0 -31
-4 -46 -10 -21 -8 -24 -13 -17 -27 20 -35 -50 -70 -340 -169 -246 -83 -309
-113 -387 -181 -115 -101 -108 -213 17 -271 54 -25 65 -27 202 -27 113 1 168
6 250 24 164 36 279 77 368 130 45 27 95 53 111 59 46 16 112 62 174 120 60
58 76 87 30 54 -55 -38 -136 -73 -216 -94 -107 -26 -289 -22 -385 10 -105 36
-106 37 -32 70 53 23 72 27 100 21 50 -12 182 -11 237 2 160 37 225 62 275
107 34 31 41 34 64 24 22 -11 26 -9 35 16 15 37 0 75 -31 82 -37 9 -35 28 10
100 54 86 98 181 105 227 3 21 11 54 16 74 14 44 -10 197 -41 266 -40 90 -120
165 -224 208 -35 15 -38 15 -33 1z m-176 -1078 c-3 -7 -5 -2 -5 12 0 14 2 19
5 13 2 -7 2 -19 0 -25z m-620 -220 c-2 -21 3 -38 13 -45 13 -11 13 -12 -3 -13
-10 0 -15 -4 -12 -10 3 -5 1 -10 -5 -10 -20 0 -80 29 -80 38 0 12 67 72 80 72
5 0 8 -15 7 -32z"/>
<path d="M1055 3020 c-18 -20 -18 -21 -1 -38 16 -16 18 -16 32 2 33 45 5 76
-31 36z"/>
<path d="M2595 2956 c-5 -3 -22 -7 -37 -10 -45 -10 -95 -62 -114 -118 -32 -97
-1 -214 79 -298 50 -53 116 -110 126 -110 5 0 11 17 14 38 3 20 8 46 12 58 5
15 -4 33 -35 70 -79 93 -100 176 -59 228 38 49 129 24 129 -36 0 -37 16 -55
37 -42 18 11 23 20 49 76 15 35 15 39 -2 69 -11 18 -35 40 -54 50 -34 17 -124
33 -145 25z"/>
<path d="M4113 2951 c-125 -32 -146 -105 -141 -502 3 -256 4 -265 26 -301 38
-62 74 -81 162 -86 63 -4 83 -1 117 17 67 34 87 78 91 198 l4 103 -55 0 c-65
0 -67 -3 -67 -100 0 -62 -2 -70 -26 -89 -59 -47 -118 -10 -129 80 -4 30 -5
156 -3 281 3 212 4 228 24 255 16 21 31 29 61 31 52 4 64 -12 78 -102 l11 -71
53 -3 53 -3 -3 89 c-4 77 -8 94 -32 131 -16 24 -43 49 -61 56 -43 18 -123 26
-163 16z"/>
<path d="M2895 2940 c-8 -12 22 -107 36 -116 5 -3 27 9 49 28 41 35 53 81 24
92 -25 10 -102 7 -109 -4z"/>
<path d="M3251 2941 c-13 -8 -38 -117 -29 -127 9 -9 95 53 114 81 9 14 14 29
12 36 -4 13 -79 21 -97 10z"/>
<path d="M3762 2937 c-7 -8 -12 -95 -14 -227 -2 -118 -7 -223 -12 -232 -5 -12
-4 -18 3 -18 6 0 11 7 11 15 0 8 5 16 10 16 6 1 14 2 18 3 15 2 37 30 62 81
22 45 25 64 28 189 5 182 3 186 -52 186 -24 0 -48 -6 -54 -13z"/>
<path d="M1028 2883 c6 -2 18 -2 25 0 6 3 1 5 -13 5 -14 0 -19 -2 -12 -5z"/>
<path d="M3474 2828 c-16 -12 -33 -27 -37 -33 -8 -10 -1 -184 7 -193 21 -20
116 124 116 176 0 20 -35 72 -49 72 -5 0 -21 -10 -37 -22z"/>
<path d="M3033 2739 c-16 -16 -4 -49 18 -49 21 0 22 4 13 38 -7 24 -15 27 -31
11z"/>
<path d="M1850 2640 c-9 -6 -10 -10 -3 -10 6 0 15 5 18 10 8 12 4 12 -15 0z"/>
<path d="M801 2602 c-1 -34 -10 -54 -42 -97 -72 -95 -97 -200 -64 -264 l14
-28 -42 1 c-23 1 -48 5 -55 10 -16 9 -15 4 3 -30 16 -32 8 -49 -30 -58 -33 -8
-32 -17 9 -73 18 -27 43 -70 55 -98 12 -27 29 -60 37 -73 l15 -24 29 44 c69
105 142 159 430 317 124 68 244 138 267 155 119 88 151 114 187 154 49 54 41
62 -62 62 -57 0 -74 -3 -79 -16 -4 -10 -8 -12 -12 -5 -5 8 -20 7 -51 -2 -43
-12 -45 -15 -52 -59 -3 -26 -9 -51 -12 -57 -12 -19 -120 -33 -225 -29 -95 3
-113 7 -173 36 -54 27 -73 43 -101 85 -19 29 -37 61 -40 72 -2 11 -5 1 -6 -23z
m640 -109 c-12 -20 -14 -14 -5 12 4 9 9 14 11 11 3 -2 0 -13 -6 -23z m-540
-84 c12 -17 24 -50 27 -74 l4 -43 -88 -28 -89 -29 -3 33 c-1 18 5 46 14 63 21
41 83 109 99 109 8 0 24 -14 36 -31z"/>
<path d="M1781 2598 c-14 -23 -14 -23 8 -4 22 20 25 26 13 26 -4 0 -13 -10
-21 -22z"/>
<path d="M1700 2560 c-14 -11 -20 -20 -13 -20 6 0 15 5 18 11 4 6 17 14 29 19
12 5 15 9 6 9 -8 0 -26 -8 -40 -19z"/>
<path d="M3484 2518 c-3 -10 -9 -18 -13 -18 -17 0 -31 -54 -31 -115 l0 -65 33
0 c52 1 68 33 65 132 -3 76 -4 81 -25 83 -14 1 -25 -5 -29 -17z"/>
<path d="M1605 2510 c-13 -6 -15 -9 -5 -9 8 0 22 4 30 9 18 12 2 12 -25 0z"/>
<path d="M1748 2473 c7 -3 16 -2 19 1 4 3 -2 6 -13 5 -11 0 -14 -3 -6 -6z"/>
<path d="M3817 2323 c-48 -59 -76 -83 -96 -83 -26 0 -27 -32 -3 -110 l18 -55
58 -3 c41 -2 62 1 67 10 10 15 12 212 3 246 -8 29 -19 28 -47 -5z"/>
<path d="M2437 2313 c-13 -12 -7 -103 9 -141 33 -80 88 -112 192 -112 62 0
117 22 139 57 18 28 19 26 -30 47 -28 11 -55 14 -96 10 -54 -6 -59 -5 -79 21
-13 16 -22 42 -22 61 0 56 -7 64 -59 64 -26 0 -51 -3 -54 -7z"/>
<path d="M3074 2225 c-3 -8 -7 -45 -7 -82 l-2 -68 58 -3 57 -3 0 55 c0 72 -6
84 -47 101 -44 19 -52 19 -59 0z"/>
<path d="M3456 2175 c-15 -15 -18 -29 -18 -70 0 -8 0 -19 1 -25 0 -5 24 -10
51 -10 l50 0 0 55 c0 30 -3 55 -7 56 -5 0 -20 3 -35 5 -16 3 -32 -2 -42 -11z"/>
</g>
</svg>
